<?xml version="1.0" encoding="UTF-8"?>
<svg width="100" height="100" viewBox="0 0 100 100" fill="none" xmlns="http://www.w3.org/2000/svg">
  <!-- University Shield Background -->
  <path d="M50 5L20 20V40C20 65 35 85 50 95C65 85 80 65 80 40V20L50 5Z" fill="#1e40af" stroke="#1e3a8a" stroke-width="2"/>
  
  <!-- Inner Shield -->
  <path d="M50 12L28 24V38C28 58 39 74 50 82C61 74 72 58 72 38V24L50 12Z" fill="#3b82f6"/>
  
  <!-- Book Symbol -->
  <rect x="38" y="32" width="24" height="18" rx="1" fill="white" opacity="0.9"/>
  <rect x="40" y="34" width="20" height="14" rx="1" fill="#1e40af"/>
  
  <!-- Book Pages -->
  <line x1="43" y1="37" x2="57" y2="37" stroke="white" stroke-width="1"/>
  <line x1="43" y1="40" x2="57" y2="40" stroke="white" stroke-width="1"/>
  <line x1="43" y1="43" x2="57" y2="43" stroke="white" stroke-width="1"/>
  <line x1="43" y1="46" x2="54" y2="46" stroke="white" stroke-width="1"/>
  
  <!-- Crown/Cap on top -->
  <path d="M45 25L50 20L55 25L52 28L48 28Z" fill="#fbbf24"/>
  
  <!-- Graduation Symbol -->
  <circle cx="50" cy="60" r="8" fill="white" opacity="0.9"/>
  <path d="M42 60L50 55L58 60L50 65Z" fill="#1e40af"/>
  
  <!-- Stars -->
  <circle cx="35" cy="30" r="1" fill="white" opacity="0.6"/>
  <circle cx="65" cy="30" r="1" fill="white" opacity="0.6"/>
  <circle cx="35" cy="50" r="1" fill="white" opacity="0.6"/>
  <circle cx="65" cy="50" r="1" fill="white" opacity="0.6"/>
  
  <!-- University Text Banner -->
  <rect x="25" y="72" width="50" height="8" rx="2" fill="white" opacity="0.9"/>
  <text x="50" y="78" font-family="serif" font-size="6" font-weight="bold" text-anchor="middle" fill="#1e40af">T.U.</text>
</svg>